<mxfile host="app.diagrams.net" modified="2023-11-05T13:23:48.060Z" agent="Mozilla/5.0 (Windows NT 10.0; Win64; x64) AppleWebKit/537.36 (KHTML, like Gecko) Chrome/119.0.0.0 Safari/537.36" version="22.0.8" etag="V9JruCg1vbA8mepKOyvm" type="github">
  <diagram name="Trang-1" id="OjAT_0d8OoB9XjNZqW4w">
    <mxGraphModel>
      <root>
        <mxCell id="0" />
        <mxCell id="1" parent="0" />
      </root>
    </mxGraphModel>
  </diagram>
</mxfile>
